<svg width="22" height="22" viewBox="0 0 22 22" fill="none" xmlns="http://www.w3.org/2000/svg">
<path d="M11.0001 0.842224C8.99105 0.842224 7.02715 1.43797 5.35671 2.55412C3.68627 3.67027 2.38432 5.2567 1.6155 7.11279C0.846686 8.96888 0.645528 11.0113 1.03747 12.9817C1.42941 14.9521 2.39684 16.762 3.81743 18.1826C5.23802 19.6032 7.04797 20.5707 9.01838 20.9626C10.9888 21.3545 13.0312 21.1534 14.8873 20.3846C16.7434 19.6157 18.3298 18.3138 19.4459 16.6434C20.5621 14.9729 21.1578 13.009 21.1578 11C21.1548 8.30694 20.0836 5.72506 18.1793 3.82078C16.275 1.9165 13.6931 0.845312 11.0001 0.842224ZM14.5273 13.1544C14.6177 13.2444 14.6895 13.3514 14.7384 13.4692C14.7874 13.587 14.8126 13.7133 14.8126 13.8408C14.8126 13.9684 14.7874 14.0947 14.7384 14.2125C14.6895 14.3303 14.6177 14.4372 14.5273 14.5272C14.4381 14.6184 14.3317 14.6908 14.2141 14.7402C14.0966 14.7896 13.9704 14.8151 13.8428 14.815C13.7148 14.8147 13.5881 14.7892 13.47 14.7398C13.3519 14.6904 13.2446 14.6182 13.1545 14.5272L11.0001 12.3728L8.84562 14.5272C8.75549 14.6182 8.64828 14.6904 8.53016 14.7398C8.41204 14.7892 8.28532 14.8147 8.15729 14.815C8.02978 14.8151 7.90355 14.7896 7.78601 14.7402C7.66847 14.6908 7.562 14.6184 7.47285 14.5272C7.38242 14.4372 7.31067 14.3303 7.26171 14.2125C7.21275 14.0947 7.18755 13.9684 7.18755 13.8408C7.18755 13.7133 7.21275 13.587 7.26171 13.4692C7.31067 13.3514 7.38242 13.2444 7.47285 13.1544L9.6234 11L7.47285 8.84556C7.29547 8.66245 7.19711 8.417 7.19896 8.16207C7.20081 7.90714 7.30271 7.66314 7.48272 7.48262C7.66273 7.3021 7.90644 7.19951 8.16136 7.19694C8.41628 7.19437 8.66201 7.29204 8.84562 7.46889L11.0001 9.62333L13.1545 7.46889C13.3381 7.29204 13.5839 7.19437 13.8388 7.19694C14.0937 7.19951 14.3374 7.3021 14.5174 7.48262C14.6974 7.66314 14.7993 7.90714 14.8012 8.16207C14.803 8.417 14.7047 8.66245 14.5273 8.84556L12.3767 11L14.5273 13.1544Z" fill="#94A3AB"/>
</svg>
