<svg width="22" height="22" viewBox="0 0 22 22" fill="none" xmlns="http://www.w3.org/2000/svg">
<path d="M11.0079 0.842227C8.99741 0.840689 7.03166 1.43512 5.35927 2.55034C3.68688 3.66555 2.38299 5.25144 1.61255 7.1074C0.842116 8.96336 0.639735 11.006 1.03101 12.9769C1.42229 14.9478 2.38965 16.7585 3.81072 18.1799C5.23179 19.6013 7.04273 20.5695 9.01445 20.962C10.9862 21.3546 13.0301 21.1539 14.8877 20.3853C16.7452 19.6167 18.333 18.3148 19.4501 16.6442C20.5673 14.9736 21.1635 13.0094 21.1635 11C21.1604 8.30829 20.0897 5.72759 18.1861 3.82352C16.2824 1.91946 13.7011 0.847372 11.0079 0.842227ZM16.3114 9.49501L10.6188 14.8656C10.2854 15.1727 9.84851 15.3433 9.39504 15.3433C8.94157 15.3433 8.50471 15.1727 8.1713 14.8656L5.63823 12.5322C5.44886 12.3569 5.33694 12.1135 5.32709 11.8557C5.31724 11.5979 5.41027 11.3468 5.5857 11.1575C5.76114 10.9682 6.00461 10.8564 6.26257 10.8465C6.52052 10.8367 6.77182 10.9297 6.96119 11.105L9.37753 13.3333L14.9806 8.06389C15.1707 7.90134 15.4162 7.81823 15.666 7.83183C15.9157 7.84542 16.1507 7.95468 16.322 8.13689C16.4933 8.31911 16.5878 8.56028 16.5858 8.8103C16.5838 9.06032 16.4855 9.29996 16.3114 9.47945V9.49501Z" fill="#4DCB7B"/>
</svg>
