<svg width="18" height="18" viewBox="0 0 18 18" fill="none" xmlns="http://www.w3.org/2000/svg">
<path d="M9 0.293335C7.27799 0.293335 5.59464 0.803972 4.16284 1.76067C2.73104 2.71737 1.61508 4.07717 0.956095 5.66811C0.297108 7.25904 0.124686 9.00966 0.460635 10.6986C0.796584 12.3875 1.62581 13.9389 2.84346 15.1565C4.06111 16.3742 5.61249 17.2034 7.30142 17.5394C8.99035 17.8753 10.741 17.7029 12.3319 17.0439C13.9228 16.3849 15.2826 15.269 16.2393 13.8372C17.196 12.4054 17.7067 10.722 17.7067 9C17.704 6.69166 16.7859 4.47863 15.1536 2.84638C13.5214 1.21414 11.3083 0.295982 9 0.293335ZM12.0233 10.8467C12.1008 10.9238 12.1623 11.0155 12.2043 11.1164C12.2463 11.2174 12.2679 11.3257 12.2679 11.435C12.2679 11.5443 12.2463 11.6526 12.2043 11.7536C12.1623 11.8545 12.1008 11.9462 12.0233 12.0233C11.9469 12.1015 11.8557 12.1635 11.7549 12.2059C11.6542 12.2483 11.546 12.2701 11.4367 12.27C11.3269 12.2698 11.2183 12.2478 11.1171 12.2055C11.0158 12.1632 10.9239 12.1013 10.8467 12.0233L9 10.1767L7.15334 12.0233C7.07608 12.1013 6.98419 12.1632 6.88294 12.2055C6.78169 12.2478 6.67308 12.2698 6.56334 12.27C6.45405 12.2701 6.34585 12.2483 6.2451 12.2059C6.14435 12.1635 6.05309 12.1015 5.97667 12.0233C5.89917 11.9462 5.83767 11.8545 5.7957 11.7536C5.75374 11.6526 5.73213 11.5443 5.73213 11.435C5.73213 11.3257 5.75374 11.2174 5.7957 11.1164C5.83767 11.0155 5.89917 10.9238 5.97667 10.8467L7.82 9L5.97667 7.15334C5.82464 6.99639 5.74033 6.786 5.74191 6.56749C5.7435 6.34898 5.83084 6.13984 5.98514 5.98511C6.13943 5.83038 6.34833 5.74244 6.56683 5.74024C6.78533 5.73804 6.99596 5.82175 7.15334 5.97334L9 7.82L10.8467 5.97334C11.0041 5.82175 11.2147 5.73804 11.4332 5.74024C11.6517 5.74244 11.8606 5.83038 12.0149 5.98511C12.1692 6.13984 12.2565 6.34898 12.2581 6.56749C12.2597 6.786 12.1754 6.99639 12.0233 7.15334L10.18 9L12.0233 10.8467Z" fill="#FF5A60"/>
</svg>
