<svg width="72" height="72" viewBox="0 0 72 72" fill="none" xmlns="http://www.w3.org/2000/svg">
<path d="M21.2144 65.7878C17.6462 65.6255 15.7078 65.0317 14.4186 64.5288C12.7103 63.8637 11.4923 63.072 10.2102 61.7916C8.92805 60.5112 8.13451 59.2933 7.47294 57.585C6.97007 56.2957 6.37626 54.3574 6.21399 50.7891C6.03566 46.932 6 45.7747 6 36.0027C6 26.2306 6.03923 25.0751 6.2122 21.2144C6.37448 17.6462 6.97185 15.7114 7.47116 14.4186C8.1363 12.7103 8.92983 11.4923 10.2084 10.2084C11.4888 8.92805 12.7067 8.13273 14.4168 7.47116C15.7061 6.96829 17.6444 6.37448 21.2126 6.2122C25.0715 6.03566 26.2306 6 35.9991 6C45.7712 6 46.9267 6.03923 50.7874 6.2122C54.3556 6.37448 56.2904 6.97185 57.5832 7.47116C59.2915 8.13273 60.5095 8.92805 61.7916 10.2084C63.0737 11.4888 63.8637 12.7085 64.5288 14.4168C65.0317 15.7061 65.6255 17.6444 65.7878 21.2126C65.9643 25.0733 66 26.2288 66 36.0009C66 45.7694 65.9643 46.9285 65.7878 50.7891C65.6255 54.3574 65.0281 56.2957 64.5288 57.585C63.8637 59.2933 63.072 60.5112 61.7916 61.7916C60.5112 63.072 59.2915 63.8637 57.5832 64.5288C56.2939 65.0317 54.3556 65.6255 50.7874 65.7878C46.9302 65.9643 45.7712 66 35.9991 66C26.2306 66 25.0715 65.9661 21.2144 65.7878Z" fill="url(#paint0_radial)"/>
<path d="M21.2144 65.7878C17.6462 65.6255 15.7078 65.0317 14.4186 64.5288C12.7103 63.8637 11.4923 63.072 10.2102 61.7916C8.92805 60.5112 8.13451 59.2933 7.47294 57.585C6.97007 56.2957 6.37626 54.3574 6.21399 50.7891C6.03566 46.932 6 45.7747 6 36.0027C6 26.2306 6.03923 25.0751 6.2122 21.2144C6.37448 17.6462 6.97185 15.7114 7.47116 14.4186C8.1363 12.7103 8.92983 11.4923 10.2084 10.2084C11.4888 8.92805 12.7067 8.13273 14.4168 7.47116C15.7061 6.96829 17.6444 6.37448 21.2126 6.2122C25.0715 6.03566 26.2306 6 35.9991 6C45.7712 6 46.9267 6.03923 50.7874 6.2122C54.3556 6.37448 56.2904 6.97185 57.5832 7.47116C59.2915 8.13273 60.5095 8.92805 61.7916 10.2084C63.0737 11.4888 63.8637 12.7085 64.5288 14.4168C65.0317 15.7061 65.6255 17.6444 65.7878 21.2126C65.9643 25.0733 66 26.2288 66 36.0009C66 45.7694 65.9643 46.9285 65.7878 50.7891C65.6255 54.3574 65.0281 56.2957 64.5288 57.585C63.8637 59.2933 63.072 60.5112 61.7916 61.7916C60.5112 63.072 59.2915 63.8637 57.5832 64.5288C56.2939 65.0317 54.3556 65.6255 50.7874 65.7878C46.9302 65.9643 45.7712 66 35.9991 66C26.2306 66 25.0715 65.9661 21.2144 65.7878Z" fill="url(#paint1_radial)"/>
<path d="M28.6336 36.1278C28.6336 32.0245 31.9591 28.6971 36.0625 28.6971C40.1658 28.6971 43.4931 32.0245 43.4931 36.1278C43.4931 40.2312 40.1658 43.5585 36.0625 43.5585C31.9591 43.5585 28.6336 40.2312 28.6336 36.1278ZM24.6167 36.1278C24.6167 42.4493 29.741 47.5736 36.0625 47.5736C42.384 47.5736 47.5082 42.4493 47.5082 36.1278C47.5082 29.8063 42.384 24.6821 36.0625 24.6821C29.741 24.6821 24.6169 29.806 24.6169 36.1278H24.6167ZM45.2867 24.2282C45.2865 24.7573 45.4432 25.2745 45.7369 25.7145C46.0306 26.1545 46.4483 26.4975 46.9369 26.7001C47.4256 26.9028 47.9634 26.9559 48.4823 26.8529C49.0012 26.7499 49.4779 26.4954 49.8522 26.1214C50.2264 25.7475 50.4813 25.271 50.5848 24.7522C50.6882 24.2334 50.6354 23.6955 50.4332 23.2067C50.2309 22.7178 49.8882 22.2999 49.4485 22.0059C49.0087 21.7118 48.4916 21.5547 47.9626 21.5545H47.9615C47.2524 21.5548 46.5724 21.8366 46.0709 22.3379C45.5694 22.8392 45.2873 23.5191 45.2867 24.2282ZM27.0572 54.2717C24.884 54.1728 23.7028 53.8108 22.9178 53.5049C21.8771 53.0998 21.1346 52.6173 20.3539 51.8376C19.5732 51.058 19.09 50.3162 18.6866 49.2755C18.3806 48.4909 18.0186 47.3093 17.9198 45.1361C17.8117 42.7865 17.7902 42.0807 17.7902 36.1282C17.7902 30.1756 17.8135 29.4718 17.9198 27.1202C18.0188 24.947 18.3834 23.7678 18.6866 22.9809C19.0917 21.9402 19.5743 21.1976 20.3539 20.417C21.1335 19.6363 21.8753 19.153 22.9178 18.7496C23.7024 18.4436 24.884 18.0816 27.0572 17.9829C29.4068 17.8748 30.1126 17.8532 36.0625 17.8532C42.0124 17.8532 42.7189 17.8762 45.0704 17.9832C47.2436 18.0822 48.4229 18.4469 49.2098 18.75C50.2505 19.1534 50.993 19.6377 51.7737 20.4173C52.5544 21.1969 53.0359 21.9405 53.441 22.9812C53.747 23.7658 54.109 24.9474 54.2078 27.1206C54.3159 29.4721 54.3374 30.176 54.3374 36.1285C54.3374 42.0811 54.3159 42.7849 54.2078 45.1365C54.1088 47.3097 53.745 48.4909 53.441 49.2759C53.0359 50.3165 52.5533 51.0591 51.7737 51.838C50.9941 52.6169 50.2505 53.1001 49.2098 53.5053C48.4252 53.8113 47.2436 54.1733 45.0704 54.2721C42.7208 54.3801 42.015 54.4017 36.0625 54.4017C30.1099 54.4017 29.4061 54.3801 27.0572 54.2721V54.2717ZM26.8726 13.9726C24.4997 14.0806 22.8782 14.4569 21.4622 15.0079C19.9965 15.5769 18.7542 16.3403 17.5136 17.579C16.273 18.8176 15.5116 20.0601 14.9425 21.5275C14.3915 22.9445 14.0153 24.5651 13.9072 26.938C13.7974 29.3147 13.7722 30.0745 13.7722 36.1278C13.7722 42.1811 13.7974 42.941 13.9072 45.3176C14.0153 47.6908 14.3915 49.3112 14.9425 50.7281C15.5116 52.1937 16.2732 53.4386 17.5136 54.6767C18.754 55.9148 19.9948 56.6771 21.4622 57.2477C22.8809 57.7988 24.4997 58.175 26.8726 58.2831C29.2506 58.3911 30.0091 58.4181 36.0625 58.4181C42.1158 58.4181 42.8756 58.3929 45.2523 58.2831C47.6254 58.175 49.2458 57.7988 50.6628 57.2477C52.1284 56.6771 53.3708 55.9153 54.6113 54.6767C55.8519 53.4381 56.6118 52.1937 57.1824 50.7281C57.7334 49.3112 58.1114 47.6906 58.2177 45.3176C58.3258 42.9392 58.3509 42.1811 58.3509 36.1278C58.3509 30.0745 58.3258 29.3147 58.2177 26.938C58.1097 24.5649 57.7334 22.9436 57.1824 21.5275C56.6118 20.0619 55.85 18.8195 54.6113 17.579C53.3727 16.3384 52.1284 15.5769 50.6645 15.0079C49.2458 14.4569 47.6252 14.0789 45.2541 13.9726C42.877 13.864 42.1176 13.8376 36.0651 13.8376C30.0127 13.8376 29.2515 13.8627 26.8735 13.9726" fill="white"/>
<defs>
<radialGradient id="paint0_radial" cx="0" cy="0" r="1" gradientUnits="userSpaceOnUse" gradientTransform="translate(9.88314 64.6856) scale(76.1777)">
<stop offset="0.09" stop-color="#FA8F21"/>
<stop offset="0.78" stop-color="#D82D7E"/>
</radialGradient>
<radialGradient id="paint1_radial" cx="0" cy="0" r="1" gradientUnits="userSpaceOnUse" gradientTransform="translate(47.5599 62.759) scale(67.0371)">
<stop offset="0.64" stop-color="#8C3AAA" stop-opacity="0"/>
<stop offset="1" stop-color="#8C3AAA"/>
</radialGradient>
</defs>
</svg>
